<?xml version="1.0" encoding="UTF-8"?> <svg xmlns="http://www.w3.org/2000/svg" id="Layer_1" data-name="Layer 1" viewBox="0 0 381.41 73.97"><defs><style>.cls-1{fill:#754c29;}.cls-2{fill:#397338;}.cls-3{fill:#f7941d;}</style></defs><title>color-flush-Grassland2.0-logo-web</title><path class="cls-1" d="M93.53,78.54a119.14,119.14,0,0,0-31.25-3.87A119.14,119.14,0,0,0,31,78.54c-1.7.47-3.31,1-4.85,1.52a37,37,0,0,0,72.2,0Q96.09,79.25,93.53,78.54Zm-11,17.08a41.78,41.78,0,0,1-9.16-3.49,14.63,14.63,0,0,0,.21,5l.23,1.05-2.12.47-.23-1.06c-.09-.45-.85-4.11,0-6.61-.3-.2-.6-.4-.89-.61a34.15,34.15,0,0,1-7.4-7.58,21.49,21.49,0,0,0,.68,4.7l.17.6c1.33,4.85,2,7.29.15,15-.63,0-1.26.08-1.9.08l-.34,0,.12-.53c1.73-7.24,1.19-9.22-.12-14l-.17-.6A23.33,23.33,0,0,1,61,82.62a18.42,18.42,0,0,1-5.39,4.61v.35a5.91,5.91,0,0,0,1.91,5,16,16,0,0,0,2.63,1.75l1,.47-.94,2-1-.47s-.55-.27-1.3-.75a10.88,10.88,0,0,0,1,6.62l.54.93a26.78,26.78,0,0,1-2.69-.38,12.77,12.77,0,0,1-.83-8.44l0-.17a8.06,8.06,0,0,1-2.52-5.69c-1,.5-2.11,1-3.18,1.36l-.06.78a18.67,18.67,0,0,1-1.91,6.83l-.52,1-1.9-1,.51-1A16.36,16.36,0,0,0,48,90.49a42.22,42.22,0,0,1-9.35,1.83c-.61-.7-1.19-1.42-1.73-2.17l.41,0c3.63.2,16.3-2.13,21.51-8.35a39.78,39.78,0,0,1-14.14,5c-.86-.6-1.7-1.23-2.5-1.91l.46,0a38.24,38.24,0,0,0,15.56-5.17s.14-.11.16-.14a5.4,5.4,0,0,1,8.23.52,1,1,0,0,0,.12.13l.14.11a38.38,38.38,0,0,0,14.45,4.5l1,.07a30.19,30.19,0,0,1-2.56,1.94A39.85,39.85,0,0,1,65.1,81.74a32.39,32.39,0,0,0,6.76,6.88c5,3.65,12.36,5.16,12.44,5.17l.19,0C83.87,94.46,83.23,95.05,82.57,95.62Z" transform="translate(-25.29 -35.01)"></path><path class="cls-2" d="M63.08,45.41a5.06,5.06,0,1,1-5.8,5.8A5.09,5.09,0,0,1,63.08,45.41Z" transform="translate(-25.29 -35.01)"></path><path class="cls-2" d="M66.8,67.93a5.44,5.44,0,0,1-9,0c-4-5.69-9.14-14-9.14-18.93a2.25,2.25,0,0,1,4.49,0,9.18,9.18,0,1,0,18.32,0,2.25,2.25,0,0,1,4.49,0C75.93,53.91,70.77,62.24,66.8,67.93Z" transform="translate(-25.29 -35.01)"></path><path class="cls-3" d="M30.35,72a31.93,31.93,0,1,1,63.86,0c0,.77,0,1.52-.09,2.28,1.71.46,3.37,1,5,1.5.12-1.24.19-2.5.19-3.78a37,37,0,1,0-74,0,36.22,36.22,0,0,0,.2,3.78c1.59-.54,3.25-1,5-1.5C30.39,73.52,30.35,72.77,30.35,72Z" transform="translate(-25.29 -35.01)"></path><path class="cls-2" d="M143.93,88.94a9.17,9.17,0,0,1-1.9,3.87,11.35,11.35,0,0,1-4.2,3,18.21,18.21,0,0,1-7.38,1.24,17.12,17.12,0,0,1-4-.49,12.8,12.8,0,0,1-3.74-1.53,9.21,9.21,0,0,1-2.81-2.68,7.83,7.83,0,0,1-1.27-3.92h7.32a4.18,4.18,0,0,0,2,2.88,7.21,7.21,0,0,0,3.48.81A5.33,5.33,0,0,0,136,90.29a7.37,7.37,0,0,0,1.38-4.72V82h-.11a7.24,7.24,0,0,1-3.4,3.14,11,11,0,0,1-4.65,1A11.75,11.75,0,0,1,124,85.12a9.83,9.83,0,0,1-3.58-2.91,11.91,11.91,0,0,1-2.05-4.3,20.18,20.18,0,0,1-.65-5.22,16.75,16.75,0,0,1,.75-5,13.07,13.07,0,0,1,2.21-4.26,10.68,10.68,0,0,1,3.61-2.94,10.91,10.91,0,0,1,5-1.09,10.4,10.4,0,0,1,4.65,1,8,8,0,0,1,3.34,3.32h.11V60.12h7V85.25A18.28,18.28,0,0,1,143.93,88.94ZM133.83,80a5.89,5.89,0,0,0,2-1.66A7.4,7.4,0,0,0,137,76a9.73,9.73,0,0,0,.39-2.78,15.85,15.85,0,0,0-.31-3.14,8,8,0,0,0-1-2.62,5.49,5.49,0,0,0-1.92-1.82,6.18,6.18,0,0,0-3-.67,5.45,5.45,0,0,0-2.68.62,5.7,5.7,0,0,0-1.87,1.69,7.23,7.23,0,0,0-1.09,2.44,12.34,12.34,0,0,0-.34,2.88,14.65,14.65,0,0,0,.29,2.88,7.85,7.85,0,0,0,1,2.57,5.83,5.83,0,0,0,1.85,1.88,5.25,5.25,0,0,0,2.86.72A6,6,0,0,0,133.83,80Z" transform="translate(-25.29 -35.01)"></path><path class="cls-2" d="M155.79,60.12v5h.11a8.76,8.76,0,0,1,1.4-2.32,9.39,9.39,0,0,1,2-1.81,9.69,9.69,0,0,1,2.45-1.17,8.67,8.67,0,0,1,2.7-.42,5.78,5.78,0,0,1,1.6.26v6.86c-.34-.07-.76-.13-1.24-.19a13.66,13.66,0,0,0-1.4-.07,7.89,7.89,0,0,0-3.43.67,5.9,5.9,0,0,0-2.26,1.85,7.27,7.27,0,0,0-1.22,2.72,15,15,0,0,0-.36,3.38V87h-7.38V60.12Z" transform="translate(-25.29 -35.01)"></path><path class="cls-2" d="M168.62,68.38a8.58,8.58,0,0,1,1.3-4.32,9,9,0,0,1,2.9-2.75,13,13,0,0,1,4-1.48,22.89,22.89,0,0,1,4.44-.44,30.08,30.08,0,0,1,4.1.29,12.66,12.66,0,0,1,3.79,1.11,7.47,7.47,0,0,1,2.8,2.32A6.41,6.41,0,0,1,193,67V81a27.63,27.63,0,0,0,.2,3.48A6.31,6.31,0,0,0,194,87h-7.48a11.33,11.33,0,0,1-.34-1.27c-.08-.44-.14-.88-.18-1.33a9.53,9.53,0,0,1-4.15,2.54,16.54,16.54,0,0,1-4.88.73,12.93,12.93,0,0,1-3.59-.47,8.16,8.16,0,0,1-2.9-1.45,6.75,6.75,0,0,1-1.95-2.49,8.41,8.41,0,0,1-.7-3.58,7.8,7.8,0,0,1,.8-3.77,6.73,6.73,0,0,1,2.08-2.36,9.45,9.45,0,0,1,2.91-1.33c1.09-.29,2.19-.52,3.29-.7s2.2-.31,3.28-.41a20.15,20.15,0,0,0,2.85-.47,5.06,5.06,0,0,0,2-.91,2,2,0,0,0,.67-1.74,3.86,3.86,0,0,0-.39-1.89,2.8,2.8,0,0,0-1-1.09,4.11,4.11,0,0,0-1.5-.53,13.31,13.31,0,0,0-1.85-.13,5.65,5.65,0,0,0-3.43.94A4.17,4.17,0,0,0,176,68.38Zm17,5.45a3.3,3.3,0,0,1-1.17.65,14.21,14.21,0,0,1-1.5.39c-.54.1-1.1.19-1.69.26s-1.18.15-1.77.26a13,13,0,0,0-1.63.41,4.71,4.71,0,0,0-1.4.7,3.35,3.35,0,0,0-1,1.12,3.49,3.49,0,0,0-.37,1.71,3.34,3.34,0,0,0,.37,1.66,2.81,2.81,0,0,0,1,1.07,4.33,4.33,0,0,0,1.45.55,9.74,9.74,0,0,0,1.72.15,6.44,6.44,0,0,0,3.37-.73,4.77,4.77,0,0,0,1.77-1.74,5.62,5.62,0,0,0,.7-2.05,13.27,13.27,0,0,0,.13-1.66Z" transform="translate(-25.29 -35.01)"></path><path class="cls-2" d="M203.54,80.29a4.31,4.31,0,0,0,1.27,1.41,5.5,5.5,0,0,0,1.79.8,8.19,8.19,0,0,0,2.11.26,7.89,7.89,0,0,0,1.63-.18A5.46,5.46,0,0,0,211.9,82a3.54,3.54,0,0,0,1.17-1,2.74,2.74,0,0,0,.46-1.64c0-1.1-.73-1.93-2.2-2.49a44,44,0,0,0-6.15-1.66c-1.08-.24-2.12-.53-3.14-.86a10.45,10.45,0,0,1-2.73-1.3,6.17,6.17,0,0,1-1.92-2,5.71,5.71,0,0,1-.73-3,8.14,8.14,0,0,1,1-4.26,7.56,7.56,0,0,1,2.68-2.62,11.67,11.67,0,0,1,3.73-1.35,23.12,23.12,0,0,1,4.26-.39,21.1,21.1,0,0,1,4.24.42,11.33,11.33,0,0,1,3.66,1.4,8.45,8.45,0,0,1,2.67,2.62A8.72,8.72,0,0,1,220.18,68h-7a3.21,3.21,0,0,0-1.61-2.88,7.37,7.37,0,0,0-3.42-.76,13.49,13.49,0,0,0-1.36.08,4.57,4.57,0,0,0-1.32.34,2.81,2.81,0,0,0-1,.75,2,2,0,0,0-.42,1.33,2,2,0,0,0,.73,1.61,5.77,5.77,0,0,0,1.9,1,23.75,23.75,0,0,0,2.67.7c1,.21,2,.44,3.06.68a29.89,29.89,0,0,1,3.15.88,10.51,10.51,0,0,1,2.72,1.37,6.73,6.73,0,0,1,1.92,2.13,6.22,6.22,0,0,1,.73,3.15,8.59,8.59,0,0,1-1.06,4.44,8.71,8.71,0,0,1-2.78,2.88,11.31,11.31,0,0,1-3.92,1.53,23.17,23.17,0,0,1-4.49.44,21.77,21.77,0,0,1-4.58-.47,12.24,12.24,0,0,1-4-1.55,8.91,8.91,0,0,1-2.85-2.88,9,9,0,0,1-1.22-4.5h7A4,4,0,0,0,203.54,80.29Z" transform="translate(-25.29 -35.01)"></path><path class="cls-2" d="M230.34,80.29a4.21,4.21,0,0,0,1.27,1.41,5.5,5.5,0,0,0,1.79.8,8.11,8.11,0,0,0,2.1.26,8,8,0,0,0,1.64-.18A5.57,5.57,0,0,0,238.7,82a3.61,3.61,0,0,0,1.16-1,2.68,2.68,0,0,0,.47-1.64c0-1.1-.73-1.93-2.2-2.49A44.63,44.63,0,0,0,232,75.18c-1.07-.24-2.12-.53-3.14-.86a10.54,10.54,0,0,1-2.72-1.3,6.31,6.31,0,0,1-1.93-2,5.81,5.81,0,0,1-.72-3,8,8,0,0,1,1-4.26,7.53,7.53,0,0,1,2.67-2.62,11.81,11.81,0,0,1,3.74-1.35,23.12,23.12,0,0,1,4.26-.39,21,21,0,0,1,4.23.42,11.15,11.15,0,0,1,3.66,1.4,8.38,8.38,0,0,1,2.68,2.62A8.83,8.83,0,0,1,247,68h-7a3.23,3.23,0,0,0-1.61-2.88,7.38,7.38,0,0,0-3.43-.76,13.47,13.47,0,0,0-1.35.08,4.57,4.57,0,0,0-1.32.34,2.94,2.94,0,0,0-1,.75,2.23,2.23,0,0,0,.32,2.94,5.62,5.62,0,0,0,1.89,1,24,24,0,0,0,2.68.7c1,.21,2,.44,3.06.68a29.71,29.71,0,0,1,3.14.88,10.58,10.58,0,0,1,2.73,1.37A6.85,6.85,0,0,1,247,75.2a6.22,6.22,0,0,1,.73,3.15,8.18,8.18,0,0,1-3.84,7.32,11.28,11.28,0,0,1-3.93,1.53,23.17,23.17,0,0,1-4.49.44,21.68,21.68,0,0,1-4.57-.47,12.15,12.15,0,0,1-4-1.55,8.53,8.53,0,0,1-4.08-7.38h7A4,4,0,0,0,230.34,80.29Z" transform="translate(-25.29 -35.01)"></path><polygon class="cls-2" points="231.84 24.75 225.22 24.75 225.22 52.31 244.92 52.31 244.92 46.63 231.84 46.63 231.84 24.75"></polygon><path class="cls-2" d="M288.27,59.76h-6.55L271.3,87.32H278l2.11-6h9.52l2,6h6.9L288.36,60Zm-.41,16.47h-5.95l3-8.51Z" transform="translate(-25.29 -35.01)"></path><polygon class="cls-2" points="291.59 41.99 280.86 24.75 274.44 24.75 274.44 52.31 280.68 52.31 280.68 35.12 291.37 52.31 297.83 52.31 297.83 24.75 291.59 24.75 291.59 41.99"></polygon><path class="cls-2" d="M349.52,67.44a11.88,11.88,0,0,0-2.64-4.27,11,11,0,0,0-4-2.56,14.31,14.31,0,0,0-5-.85H326V87.32h11.94a13.24,13.24,0,0,0,5.51-1.06,11,11,0,0,0,3.92-2.94,12.36,12.36,0,0,0,2.35-4.41,19.38,19.38,0,0,0,.76-5.52A17.28,17.28,0,0,0,349.52,67.44Zm-16.92-2h3.86A9.28,9.28,0,0,1,340,66a5.48,5.48,0,0,1,2.25,1.68,7,7,0,0,1,1.23,2.66,15.82,15.82,0,0,1,.38,3.59,10.68,10.68,0,0,1-.54,3.63A6.72,6.72,0,0,1,341.88,80a5.26,5.26,0,0,1-2,1.28,7.31,7.31,0,0,1-2.36.4H332.6Z" transform="translate(-25.29 -35.01)"></path><path class="cls-2" d="M359.33,66.39a10,10,0,0,1,1.85-3.48,8.53,8.53,0,0,1,3.11-2.33,11.4,11.4,0,0,1,7.86-.25,9.06,9.06,0,0,1,3,1.67,7.83,7.83,0,0,1,2,2.67,8.18,8.18,0,0,1,.75,3.55,8.54,8.54,0,0,1-.66,3.52,9.47,9.47,0,0,1-1.73,2.62A15.06,15.06,0,0,1,373,76.43c-.92.62-1.84,1.23-2.77,1.83s-1.83,1.26-2.71,2a12.18,12.18,0,0,0-2.32,2.43h12.81v4.72H358.16a11.32,11.32,0,0,1,.68-4.1,11,11,0,0,1,1.84-3.11,15.43,15.43,0,0,1,2.73-2.53q1.56-1.17,3.3-2.37c.6-.41,1.23-.83,1.9-1.25a13,13,0,0,0,1.84-1.42,7.29,7.29,0,0,0,1.39-1.74,4.34,4.34,0,0,0,.56-2.2,4.07,4.07,0,0,0-1.14-3.07,4,4,0,0,0-2.92-1.11,3.56,3.56,0,0,0-2,.56A4.3,4.3,0,0,0,365,66.5a7,7,0,0,0-.72,2A11.76,11.76,0,0,0,364,70.7h-5.26A12.82,12.82,0,0,1,359.33,66.39Z" transform="translate(-25.29 -35.01)"></path><path class="cls-2" d="M387.62,67.09a11.8,11.8,0,0,1,2.15-4.32,7.69,7.69,0,0,1,3.14-2.32,10.86,10.86,0,0,1,7.67,0,7.78,7.78,0,0,1,3.17,2.32,11.66,11.66,0,0,1,2.16,4.32,23.56,23.56,0,0,1,.8,6.63,24.63,24.63,0,0,1-.8,6.79,11.81,11.81,0,0,1-2.16,4.35,7.87,7.87,0,0,1-3.17,2.32,10.86,10.86,0,0,1-7.67,0,7.78,7.78,0,0,1-3.14-2.32,12,12,0,0,1-2.15-4.35,24.67,24.67,0,0,1-.79-6.79A23.59,23.59,0,0,1,387.62,67.09Zm4.78,9.43a13.88,13.88,0,0,0,.48,3.18,6.69,6.69,0,0,0,1.29,2.6,3.15,3.15,0,0,0,2.56,1.09,3.24,3.24,0,0,0,2.61-1.09,6.6,6.6,0,0,0,1.32-2.6,15.07,15.07,0,0,0,.48-3.18c.05-1.09.08-2,.08-2.8,0-.47,0-1,0-1.69s-.07-1.33-.16-2a20.39,20.39,0,0,0-.38-2.07,6.25,6.25,0,0,0-.76-1.83,4.14,4.14,0,0,0-1.28-1.32,3.41,3.41,0,0,0-1.89-.5,3.35,3.35,0,0,0-1.88.5,4.13,4.13,0,0,0-1.24,1.32,7.17,7.17,0,0,0-.75,1.83,13.23,13.23,0,0,0-.38,2.07c-.08.7-.13,1.38-.14,2s0,1.22,0,1.69C392.32,74.49,392.34,75.43,392.4,76.52Z" transform="translate(-25.29 -35.01)"></path><circle class="cls-2" cx="358.54" cy="49.33" r="3.03"></circle></svg> 